<mxfile host="app.diagrams.net" agent="Mozilla/5.0 (Windows NT 10.0; Win64; x64; rv:134.0) Gecko/20100101 Firefox/134.0" version="26.0.5">
  <diagram name="Page-1" id="H4sONhvKyHtje3pTV-qF">
    <mxGraphModel dx="2060" dy="1091" grid="1" gridSize="10" guides="1" tooltips="1" connect="1" arrows="1" fold="1" page="1" pageScale="1" pageWidth="850" pageHeight="1100" math="0" shadow="0">
      <root>
        <mxCell id="0" />
        <mxCell id="1" parent="0" />
        <mxCell id="J6gOtMhQ5AHENFdBQ14g-9" value="" style="rounded=0;whiteSpace=wrap;html=1;strokeWidth=0;" parent="1" vertex="1">
          <mxGeometry x="150" y="160" width="820" height="630" as="geometry" />
        </mxCell>
        <mxCell id="DvsllvoOx6BmzzlcIda9-1" value="&lt;span style=&quot;color: rgb(255, 255, 255);&quot;&gt;Destination&lt;/span&gt;" style="rounded=0;whiteSpace=wrap;html=1;fillColor=#000099;" parent="1" vertex="1">
          <mxGeometry x="305" y="390" width="130" height="20" as="geometry" />
        </mxCell>
        <mxCell id="DvsllvoOx6BmzzlcIda9-9" value="&lt;span style=&quot;color: rgb(255, 255, 255);&quot;&gt;Flight&lt;/span&gt;" style="rounded=0;whiteSpace=wrap;html=1;fillColor=#000099;" parent="1" vertex="1">
          <mxGeometry x="175" y="390" width="130" height="20" as="geometry" />
        </mxCell>
        <mxCell id="DvsllvoOx6BmzzlcIda9-10" value="&lt;span style=&quot;color: rgb(255, 255, 255);&quot;&gt;Time&lt;/span&gt;" style="rounded=0;whiteSpace=wrap;html=1;fillColor=#000099;" parent="1" vertex="1">
          <mxGeometry x="435" y="390" width="130" height="20" as="geometry" />
        </mxCell>
        <mxCell id="DvsllvoOx6BmzzlcIda9-11" value="&lt;span style=&quot;color: rgb(255, 255, 255);&quot;&gt;Gate&lt;/span&gt;" style="rounded=0;whiteSpace=wrap;html=1;fillColor=#000099;" parent="1" vertex="1">
          <mxGeometry x="565" y="390" width="130" height="20" as="geometry" />
        </mxCell>
        <mxCell id="DvsllvoOx6BmzzlcIda9-12" value="&lt;span style=&quot;color: rgb(255, 255, 255);&quot;&gt;Status&lt;/span&gt;" style="rounded=0;whiteSpace=wrap;html=1;fillColor=#000099;" parent="1" vertex="1">
          <mxGeometry x="695" y="390" width="130" height="20" as="geometry" />
        </mxCell>
        <mxCell id="DvsllvoOx6BmzzlcIda9-13" value="&lt;span style=&quot;color: rgb(255, 255, 255);&quot;&gt;Terminal&lt;/span&gt;" style="rounded=0;whiteSpace=wrap;html=1;fillColor=#000099;" parent="1" vertex="1">
          <mxGeometry x="825" y="390" width="130" height="20" as="geometry" />
        </mxCell>
        <mxCell id="DvsllvoOx6BmzzlcIda9-14" value="Destination" style="rounded=0;whiteSpace=wrap;html=1;" parent="1" vertex="1">
          <mxGeometry x="305" y="410" width="130" height="20" as="geometry" />
        </mxCell>
        <mxCell id="DvsllvoOx6BmzzlcIda9-15" value="Flight" style="rounded=0;whiteSpace=wrap;html=1;" parent="1" vertex="1">
          <mxGeometry x="175" y="410" width="130" height="20" as="geometry" />
        </mxCell>
        <mxCell id="DvsllvoOx6BmzzlcIda9-16" value="Time" style="rounded=0;whiteSpace=wrap;html=1;" parent="1" vertex="1">
          <mxGeometry x="435" y="410" width="130" height="20" as="geometry" />
        </mxCell>
        <mxCell id="DvsllvoOx6BmzzlcIda9-17" value="Gate" style="rounded=0;whiteSpace=wrap;html=1;" parent="1" vertex="1">
          <mxGeometry x="565" y="410" width="130" height="20" as="geometry" />
        </mxCell>
        <mxCell id="DvsllvoOx6BmzzlcIda9-18" value="Status" style="rounded=0;whiteSpace=wrap;html=1;" parent="1" vertex="1">
          <mxGeometry x="695" y="410" width="130" height="20" as="geometry" />
        </mxCell>
        <mxCell id="DvsllvoOx6BmzzlcIda9-19" value="Terminal" style="rounded=0;whiteSpace=wrap;html=1;" parent="1" vertex="1">
          <mxGeometry x="825" y="410" width="130" height="20" as="geometry" />
        </mxCell>
        <mxCell id="DvsllvoOx6BmzzlcIda9-20" value="Destination" style="rounded=0;whiteSpace=wrap;html=1;" parent="1" vertex="1">
          <mxGeometry x="305" y="430" width="130" height="20" as="geometry" />
        </mxCell>
        <mxCell id="DvsllvoOx6BmzzlcIda9-21" value="Flight" style="rounded=0;whiteSpace=wrap;html=1;" parent="1" vertex="1">
          <mxGeometry x="175" y="430" width="130" height="20" as="geometry" />
        </mxCell>
        <mxCell id="DvsllvoOx6BmzzlcIda9-22" value="Time" style="rounded=0;whiteSpace=wrap;html=1;" parent="1" vertex="1">
          <mxGeometry x="435" y="430" width="130" height="20" as="geometry" />
        </mxCell>
        <mxCell id="DvsllvoOx6BmzzlcIda9-23" value="Gate" style="rounded=0;whiteSpace=wrap;html=1;" parent="1" vertex="1">
          <mxGeometry x="565" y="430" width="130" height="20" as="geometry" />
        </mxCell>
        <mxCell id="DvsllvoOx6BmzzlcIda9-24" value="Status" style="rounded=0;whiteSpace=wrap;html=1;" parent="1" vertex="1">
          <mxGeometry x="695" y="430" width="130" height="20" as="geometry" />
        </mxCell>
        <mxCell id="DvsllvoOx6BmzzlcIda9-25" value="Terminal" style="rounded=0;whiteSpace=wrap;html=1;" parent="1" vertex="1">
          <mxGeometry x="825" y="430" width="130" height="20" as="geometry" />
        </mxCell>
        <mxCell id="DvsllvoOx6BmzzlcIda9-26" value="Destination" style="rounded=0;whiteSpace=wrap;html=1;" parent="1" vertex="1">
          <mxGeometry x="305" y="450" width="130" height="20" as="geometry" />
        </mxCell>
        <mxCell id="DvsllvoOx6BmzzlcIda9-27" value="Flight" style="rounded=0;whiteSpace=wrap;html=1;" parent="1" vertex="1">
          <mxGeometry x="175" y="450" width="130" height="20" as="geometry" />
        </mxCell>
        <mxCell id="DvsllvoOx6BmzzlcIda9-28" value="Time" style="rounded=0;whiteSpace=wrap;html=1;" parent="1" vertex="1">
          <mxGeometry x="435" y="450" width="130" height="20" as="geometry" />
        </mxCell>
        <mxCell id="DvsllvoOx6BmzzlcIda9-29" value="Gate" style="rounded=0;whiteSpace=wrap;html=1;" parent="1" vertex="1">
          <mxGeometry x="565" y="450" width="130" height="20" as="geometry" />
        </mxCell>
        <mxCell id="DvsllvoOx6BmzzlcIda9-30" value="Status" style="rounded=0;whiteSpace=wrap;html=1;" parent="1" vertex="1">
          <mxGeometry x="695" y="450" width="130" height="20" as="geometry" />
        </mxCell>
        <mxCell id="DvsllvoOx6BmzzlcIda9-31" value="Terminal" style="rounded=0;whiteSpace=wrap;html=1;" parent="1" vertex="1">
          <mxGeometry x="825" y="450" width="130" height="20" as="geometry" />
        </mxCell>
        <mxCell id="DvsllvoOx6BmzzlcIda9-32" value="Destination" style="rounded=0;whiteSpace=wrap;html=1;" parent="1" vertex="1">
          <mxGeometry x="305" y="470" width="130" height="20" as="geometry" />
        </mxCell>
        <mxCell id="DvsllvoOx6BmzzlcIda9-33" value="Flight" style="rounded=0;whiteSpace=wrap;html=1;" parent="1" vertex="1">
          <mxGeometry x="175" y="470" width="130" height="20" as="geometry" />
        </mxCell>
        <mxCell id="DvsllvoOx6BmzzlcIda9-34" value="Time" style="rounded=0;whiteSpace=wrap;html=1;" parent="1" vertex="1">
          <mxGeometry x="435" y="470" width="130" height="20" as="geometry" />
        </mxCell>
        <mxCell id="DvsllvoOx6BmzzlcIda9-35" value="Gate" style="rounded=0;whiteSpace=wrap;html=1;" parent="1" vertex="1">
          <mxGeometry x="565" y="470" width="130" height="20" as="geometry" />
        </mxCell>
        <mxCell id="DvsllvoOx6BmzzlcIda9-36" value="Status" style="rounded=0;whiteSpace=wrap;html=1;" parent="1" vertex="1">
          <mxGeometry x="695" y="470" width="130" height="20" as="geometry" />
        </mxCell>
        <mxCell id="DvsllvoOx6BmzzlcIda9-37" value="Terminal" style="rounded=0;whiteSpace=wrap;html=1;" parent="1" vertex="1">
          <mxGeometry x="825" y="470" width="130" height="20" as="geometry" />
        </mxCell>
        <mxCell id="DvsllvoOx6BmzzlcIda9-38" value="Destination" style="rounded=0;whiteSpace=wrap;html=1;" parent="1" vertex="1">
          <mxGeometry x="305" y="490" width="130" height="20" as="geometry" />
        </mxCell>
        <mxCell id="DvsllvoOx6BmzzlcIda9-39" value="Flight" style="rounded=0;whiteSpace=wrap;html=1;" parent="1" vertex="1">
          <mxGeometry x="175" y="490" width="130" height="20" as="geometry" />
        </mxCell>
        <mxCell id="DvsllvoOx6BmzzlcIda9-40" value="Time" style="rounded=0;whiteSpace=wrap;html=1;" parent="1" vertex="1">
          <mxGeometry x="435" y="490" width="130" height="20" as="geometry" />
        </mxCell>
        <mxCell id="DvsllvoOx6BmzzlcIda9-41" value="Gate" style="rounded=0;whiteSpace=wrap;html=1;" parent="1" vertex="1">
          <mxGeometry x="565" y="490" width="130" height="20" as="geometry" />
        </mxCell>
        <mxCell id="DvsllvoOx6BmzzlcIda9-42" value="Status" style="rounded=0;whiteSpace=wrap;html=1;" parent="1" vertex="1">
          <mxGeometry x="695" y="490" width="130" height="20" as="geometry" />
        </mxCell>
        <mxCell id="DvsllvoOx6BmzzlcIda9-43" value="Terminal" style="rounded=0;whiteSpace=wrap;html=1;" parent="1" vertex="1">
          <mxGeometry x="825" y="490" width="130" height="20" as="geometry" />
        </mxCell>
        <mxCell id="DvsllvoOx6BmzzlcIda9-44" value="Destination" style="rounded=0;whiteSpace=wrap;html=1;" parent="1" vertex="1">
          <mxGeometry x="305" y="510" width="130" height="20" as="geometry" />
        </mxCell>
        <mxCell id="DvsllvoOx6BmzzlcIda9-45" value="Flight" style="rounded=0;whiteSpace=wrap;html=1;" parent="1" vertex="1">
          <mxGeometry x="175" y="510" width="130" height="20" as="geometry" />
        </mxCell>
        <mxCell id="DvsllvoOx6BmzzlcIda9-46" value="Time" style="rounded=0;whiteSpace=wrap;html=1;" parent="1" vertex="1">
          <mxGeometry x="435" y="510" width="130" height="20" as="geometry" />
        </mxCell>
        <mxCell id="DvsllvoOx6BmzzlcIda9-47" value="Gate" style="rounded=0;whiteSpace=wrap;html=1;" parent="1" vertex="1">
          <mxGeometry x="565" y="510" width="130" height="20" as="geometry" />
        </mxCell>
        <mxCell id="DvsllvoOx6BmzzlcIda9-48" value="Status" style="rounded=0;whiteSpace=wrap;html=1;" parent="1" vertex="1">
          <mxGeometry x="695" y="510" width="130" height="20" as="geometry" />
        </mxCell>
        <mxCell id="DvsllvoOx6BmzzlcIda9-49" value="Terminal" style="rounded=0;whiteSpace=wrap;html=1;" parent="1" vertex="1">
          <mxGeometry x="825" y="510" width="130" height="20" as="geometry" />
        </mxCell>
        <mxCell id="DvsllvoOx6BmzzlcIda9-50" value="Destination" style="rounded=0;whiteSpace=wrap;html=1;" parent="1" vertex="1">
          <mxGeometry x="305" y="530" width="130" height="20" as="geometry" />
        </mxCell>
        <mxCell id="DvsllvoOx6BmzzlcIda9-51" value="Flight" style="rounded=0;whiteSpace=wrap;html=1;" parent="1" vertex="1">
          <mxGeometry x="175" y="530" width="130" height="20" as="geometry" />
        </mxCell>
        <mxCell id="DvsllvoOx6BmzzlcIda9-52" value="Time" style="rounded=0;whiteSpace=wrap;html=1;" parent="1" vertex="1">
          <mxGeometry x="435" y="530" width="130" height="20" as="geometry" />
        </mxCell>
        <mxCell id="DvsllvoOx6BmzzlcIda9-53" value="Gate" style="rounded=0;whiteSpace=wrap;html=1;" parent="1" vertex="1">
          <mxGeometry x="565" y="530" width="130" height="20" as="geometry" />
        </mxCell>
        <mxCell id="DvsllvoOx6BmzzlcIda9-54" value="Status" style="rounded=0;whiteSpace=wrap;html=1;" parent="1" vertex="1">
          <mxGeometry x="695" y="530" width="130" height="20" as="geometry" />
        </mxCell>
        <mxCell id="DvsllvoOx6BmzzlcIda9-55" value="Terminal" style="rounded=0;whiteSpace=wrap;html=1;" parent="1" vertex="1">
          <mxGeometry x="825" y="530" width="130" height="20" as="geometry" />
        </mxCell>
        <mxCell id="DvsllvoOx6BmzzlcIda9-56" value="Destination" style="rounded=0;whiteSpace=wrap;html=1;" parent="1" vertex="1">
          <mxGeometry x="305" y="550" width="130" height="20" as="geometry" />
        </mxCell>
        <mxCell id="DvsllvoOx6BmzzlcIda9-57" value="Flight" style="rounded=0;whiteSpace=wrap;html=1;" parent="1" vertex="1">
          <mxGeometry x="175" y="550" width="130" height="20" as="geometry" />
        </mxCell>
        <mxCell id="DvsllvoOx6BmzzlcIda9-58" value="Time" style="rounded=0;whiteSpace=wrap;html=1;" parent="1" vertex="1">
          <mxGeometry x="435" y="550" width="130" height="20" as="geometry" />
        </mxCell>
        <mxCell id="DvsllvoOx6BmzzlcIda9-59" value="Gate" style="rounded=0;whiteSpace=wrap;html=1;" parent="1" vertex="1">
          <mxGeometry x="565" y="550" width="130" height="20" as="geometry" />
        </mxCell>
        <mxCell id="DvsllvoOx6BmzzlcIda9-60" value="Status" style="rounded=0;whiteSpace=wrap;html=1;" parent="1" vertex="1">
          <mxGeometry x="695" y="550" width="130" height="20" as="geometry" />
        </mxCell>
        <mxCell id="DvsllvoOx6BmzzlcIda9-61" value="Terminal" style="rounded=0;whiteSpace=wrap;html=1;" parent="1" vertex="1">
          <mxGeometry x="825" y="550" width="130" height="20" as="geometry" />
        </mxCell>
        <mxCell id="DvsllvoOx6BmzzlcIda9-63" value="Destination" style="rounded=0;whiteSpace=wrap;html=1;" parent="1" vertex="1">
          <mxGeometry x="305" y="570" width="130" height="20" as="geometry" />
        </mxCell>
        <mxCell id="DvsllvoOx6BmzzlcIda9-64" value="Flight" style="rounded=0;whiteSpace=wrap;html=1;" parent="1" vertex="1">
          <mxGeometry x="175" y="570" width="130" height="20" as="geometry" />
        </mxCell>
        <mxCell id="DvsllvoOx6BmzzlcIda9-65" value="Time" style="rounded=0;whiteSpace=wrap;html=1;" parent="1" vertex="1">
          <mxGeometry x="435" y="570" width="130" height="20" as="geometry" />
        </mxCell>
        <mxCell id="DvsllvoOx6BmzzlcIda9-66" value="Gate" style="rounded=0;whiteSpace=wrap;html=1;" parent="1" vertex="1">
          <mxGeometry x="565" y="570" width="130" height="20" as="geometry" />
        </mxCell>
        <mxCell id="DvsllvoOx6BmzzlcIda9-67" value="Status" style="rounded=0;whiteSpace=wrap;html=1;" parent="1" vertex="1">
          <mxGeometry x="695" y="570" width="130" height="20" as="geometry" />
        </mxCell>
        <mxCell id="DvsllvoOx6BmzzlcIda9-68" value="Terminal" style="rounded=0;whiteSpace=wrap;html=1;" parent="1" vertex="1">
          <mxGeometry x="825" y="570" width="130" height="20" as="geometry" />
        </mxCell>
        <mxCell id="DvsllvoOx6BmzzlcIda9-69" value="Destination" style="rounded=0;whiteSpace=wrap;html=1;" parent="1" vertex="1">
          <mxGeometry x="305" y="590" width="130" height="20" as="geometry" />
        </mxCell>
        <mxCell id="DvsllvoOx6BmzzlcIda9-70" value="Flight" style="rounded=0;whiteSpace=wrap;html=1;" parent="1" vertex="1">
          <mxGeometry x="175" y="590" width="130" height="20" as="geometry" />
        </mxCell>
        <mxCell id="DvsllvoOx6BmzzlcIda9-71" value="Time" style="rounded=0;whiteSpace=wrap;html=1;" parent="1" vertex="1">
          <mxGeometry x="435" y="590" width="130" height="20" as="geometry" />
        </mxCell>
        <mxCell id="DvsllvoOx6BmzzlcIda9-72" value="Gate" style="rounded=0;whiteSpace=wrap;html=1;" parent="1" vertex="1">
          <mxGeometry x="565" y="590" width="130" height="20" as="geometry" />
        </mxCell>
        <mxCell id="DvsllvoOx6BmzzlcIda9-73" value="Status" style="rounded=0;whiteSpace=wrap;html=1;" parent="1" vertex="1">
          <mxGeometry x="695" y="590" width="130" height="20" as="geometry" />
        </mxCell>
        <mxCell id="DvsllvoOx6BmzzlcIda9-74" value="Terminal" style="rounded=0;whiteSpace=wrap;html=1;" parent="1" vertex="1">
          <mxGeometry x="825" y="590" width="130" height="20" as="geometry" />
        </mxCell>
        <mxCell id="DvsllvoOx6BmzzlcIda9-75" value="Destination" style="rounded=0;whiteSpace=wrap;html=1;" parent="1" vertex="1">
          <mxGeometry x="305" y="610" width="130" height="20" as="geometry" />
        </mxCell>
        <mxCell id="DvsllvoOx6BmzzlcIda9-76" value="Flight" style="rounded=0;whiteSpace=wrap;html=1;" parent="1" vertex="1">
          <mxGeometry x="175" y="610" width="130" height="20" as="geometry" />
        </mxCell>
        <mxCell id="DvsllvoOx6BmzzlcIda9-77" value="Time" style="rounded=0;whiteSpace=wrap;html=1;" parent="1" vertex="1">
          <mxGeometry x="435" y="610" width="130" height="20" as="geometry" />
        </mxCell>
        <mxCell id="DvsllvoOx6BmzzlcIda9-78" value="Gate" style="rounded=0;whiteSpace=wrap;html=1;" parent="1" vertex="1">
          <mxGeometry x="565" y="610" width="130" height="20" as="geometry" />
        </mxCell>
        <mxCell id="DvsllvoOx6BmzzlcIda9-79" value="Status" style="rounded=0;whiteSpace=wrap;html=1;" parent="1" vertex="1">
          <mxGeometry x="695" y="610" width="130" height="20" as="geometry" />
        </mxCell>
        <mxCell id="DvsllvoOx6BmzzlcIda9-80" value="Terminal" style="rounded=0;whiteSpace=wrap;html=1;" parent="1" vertex="1">
          <mxGeometry x="825" y="610" width="130" height="20" as="geometry" />
        </mxCell>
        <mxCell id="DvsllvoOx6BmzzlcIda9-81" value="Destination" style="rounded=0;whiteSpace=wrap;html=1;" parent="1" vertex="1">
          <mxGeometry x="305" y="630" width="130" height="20" as="geometry" />
        </mxCell>
        <mxCell id="DvsllvoOx6BmzzlcIda9-82" value="Flight" style="rounded=0;whiteSpace=wrap;html=1;" parent="1" vertex="1">
          <mxGeometry x="175" y="630" width="130" height="20" as="geometry" />
        </mxCell>
        <mxCell id="DvsllvoOx6BmzzlcIda9-83" value="Time" style="rounded=0;whiteSpace=wrap;html=1;" parent="1" vertex="1">
          <mxGeometry x="435" y="630" width="130" height="20" as="geometry" />
        </mxCell>
        <mxCell id="DvsllvoOx6BmzzlcIda9-84" value="Gate" style="rounded=0;whiteSpace=wrap;html=1;" parent="1" vertex="1">
          <mxGeometry x="565" y="630" width="130" height="20" as="geometry" />
        </mxCell>
        <mxCell id="DvsllvoOx6BmzzlcIda9-85" value="Status" style="rounded=0;whiteSpace=wrap;html=1;" parent="1" vertex="1">
          <mxGeometry x="695" y="630" width="130" height="20" as="geometry" />
        </mxCell>
        <mxCell id="DvsllvoOx6BmzzlcIda9-86" value="Terminal" style="rounded=0;whiteSpace=wrap;html=1;" parent="1" vertex="1">
          <mxGeometry x="825" y="630" width="130" height="20" as="geometry" />
        </mxCell>
        <mxCell id="DvsllvoOx6BmzzlcIda9-87" value="Destination" style="rounded=0;whiteSpace=wrap;html=1;" parent="1" vertex="1">
          <mxGeometry x="305" y="650" width="130" height="20" as="geometry" />
        </mxCell>
        <mxCell id="DvsllvoOx6BmzzlcIda9-88" value="Flight" style="rounded=0;whiteSpace=wrap;html=1;" parent="1" vertex="1">
          <mxGeometry x="175" y="650" width="130" height="20" as="geometry" />
        </mxCell>
        <mxCell id="DvsllvoOx6BmzzlcIda9-89" value="Time" style="rounded=0;whiteSpace=wrap;html=1;" parent="1" vertex="1">
          <mxGeometry x="435" y="650" width="130" height="20" as="geometry" />
        </mxCell>
        <mxCell id="DvsllvoOx6BmzzlcIda9-90" value="Gate" style="rounded=0;whiteSpace=wrap;html=1;" parent="1" vertex="1">
          <mxGeometry x="565" y="650" width="130" height="20" as="geometry" />
        </mxCell>
        <mxCell id="DvsllvoOx6BmzzlcIda9-91" value="Status" style="rounded=0;whiteSpace=wrap;html=1;" parent="1" vertex="1">
          <mxGeometry x="695" y="650" width="130" height="20" as="geometry" />
        </mxCell>
        <mxCell id="DvsllvoOx6BmzzlcIda9-92" value="Terminal" style="rounded=0;whiteSpace=wrap;html=1;" parent="1" vertex="1">
          <mxGeometry x="825" y="650" width="130" height="20" as="geometry" />
        </mxCell>
        <mxCell id="DvsllvoOx6BmzzlcIda9-93" value="Destination" style="rounded=0;whiteSpace=wrap;html=1;" parent="1" vertex="1">
          <mxGeometry x="305" y="670" width="130" height="20" as="geometry" />
        </mxCell>
        <mxCell id="DvsllvoOx6BmzzlcIda9-94" value="Flight" style="rounded=0;whiteSpace=wrap;html=1;" parent="1" vertex="1">
          <mxGeometry x="175" y="670" width="130" height="20" as="geometry" />
        </mxCell>
        <mxCell id="DvsllvoOx6BmzzlcIda9-95" value="Time" style="rounded=0;whiteSpace=wrap;html=1;" parent="1" vertex="1">
          <mxGeometry x="435" y="670" width="130" height="20" as="geometry" />
        </mxCell>
        <mxCell id="DvsllvoOx6BmzzlcIda9-96" value="Gate" style="rounded=0;whiteSpace=wrap;html=1;" parent="1" vertex="1">
          <mxGeometry x="565" y="670" width="130" height="20" as="geometry" />
        </mxCell>
        <mxCell id="DvsllvoOx6BmzzlcIda9-97" value="Status" style="rounded=0;whiteSpace=wrap;html=1;" parent="1" vertex="1">
          <mxGeometry x="695" y="670" width="130" height="20" as="geometry" />
        </mxCell>
        <mxCell id="DvsllvoOx6BmzzlcIda9-98" value="Terminal" style="rounded=0;whiteSpace=wrap;html=1;" parent="1" vertex="1">
          <mxGeometry x="825" y="670" width="130" height="20" as="geometry" />
        </mxCell>
        <mxCell id="DvsllvoOx6BmzzlcIda9-99" value="Destination" style="rounded=0;whiteSpace=wrap;html=1;" parent="1" vertex="1">
          <mxGeometry x="305" y="690" width="130" height="20" as="geometry" />
        </mxCell>
        <mxCell id="DvsllvoOx6BmzzlcIda9-100" value="Flight" style="rounded=0;whiteSpace=wrap;html=1;" parent="1" vertex="1">
          <mxGeometry x="175" y="690" width="130" height="20" as="geometry" />
        </mxCell>
        <mxCell id="DvsllvoOx6BmzzlcIda9-101" value="Time" style="rounded=0;whiteSpace=wrap;html=1;" parent="1" vertex="1">
          <mxGeometry x="435" y="690" width="130" height="20" as="geometry" />
        </mxCell>
        <mxCell id="DvsllvoOx6BmzzlcIda9-102" value="Gate" style="rounded=0;whiteSpace=wrap;html=1;" parent="1" vertex="1">
          <mxGeometry x="565" y="690" width="130" height="20" as="geometry" />
        </mxCell>
        <mxCell id="DvsllvoOx6BmzzlcIda9-103" value="Status" style="rounded=0;whiteSpace=wrap;html=1;" parent="1" vertex="1">
          <mxGeometry x="695" y="690" width="130" height="20" as="geometry" />
        </mxCell>
        <mxCell id="DvsllvoOx6BmzzlcIda9-104" value="Terminal" style="rounded=0;whiteSpace=wrap;html=1;" parent="1" vertex="1">
          <mxGeometry x="825" y="690" width="130" height="20" as="geometry" />
        </mxCell>
        <mxCell id="DvsllvoOx6BmzzlcIda9-105" value="Destination" style="rounded=0;whiteSpace=wrap;html=1;" parent="1" vertex="1">
          <mxGeometry x="305" y="710" width="130" height="20" as="geometry" />
        </mxCell>
        <mxCell id="DvsllvoOx6BmzzlcIda9-106" value="Flight" style="rounded=0;whiteSpace=wrap;html=1;" parent="1" vertex="1">
          <mxGeometry x="175" y="710" width="130" height="20" as="geometry" />
        </mxCell>
        <mxCell id="DvsllvoOx6BmzzlcIda9-107" value="Time" style="rounded=0;whiteSpace=wrap;html=1;" parent="1" vertex="1">
          <mxGeometry x="435" y="710" width="130" height="20" as="geometry" />
        </mxCell>
        <mxCell id="DvsllvoOx6BmzzlcIda9-108" value="Gate" style="rounded=0;whiteSpace=wrap;html=1;" parent="1" vertex="1">
          <mxGeometry x="565" y="710" width="130" height="20" as="geometry" />
        </mxCell>
        <mxCell id="DvsllvoOx6BmzzlcIda9-109" value="Status" style="rounded=0;whiteSpace=wrap;html=1;" parent="1" vertex="1">
          <mxGeometry x="695" y="710" width="130" height="20" as="geometry" />
        </mxCell>
        <mxCell id="DvsllvoOx6BmzzlcIda9-110" value="Terminal" style="rounded=0;whiteSpace=wrap;html=1;" parent="1" vertex="1">
          <mxGeometry x="825" y="710" width="130" height="20" as="geometry" />
        </mxCell>
        <mxCell id="DvsllvoOx6BmzzlcIda9-111" value="Destination" style="rounded=0;whiteSpace=wrap;html=1;" parent="1" vertex="1">
          <mxGeometry x="305" y="730" width="130" height="20" as="geometry" />
        </mxCell>
        <mxCell id="DvsllvoOx6BmzzlcIda9-112" value="Flight" style="rounded=0;whiteSpace=wrap;html=1;" parent="1" vertex="1">
          <mxGeometry x="175" y="730" width="130" height="20" as="geometry" />
        </mxCell>
        <mxCell id="DvsllvoOx6BmzzlcIda9-113" value="Time" style="rounded=0;whiteSpace=wrap;html=1;" parent="1" vertex="1">
          <mxGeometry x="435" y="730" width="130" height="20" as="geometry" />
        </mxCell>
        <mxCell id="DvsllvoOx6BmzzlcIda9-114" value="Gate" style="rounded=0;whiteSpace=wrap;html=1;" parent="1" vertex="1">
          <mxGeometry x="565" y="730" width="130" height="20" as="geometry" />
        </mxCell>
        <mxCell id="DvsllvoOx6BmzzlcIda9-115" value="Status" style="rounded=0;whiteSpace=wrap;html=1;" parent="1" vertex="1">
          <mxGeometry x="695" y="730" width="130" height="20" as="geometry" />
        </mxCell>
        <mxCell id="DvsllvoOx6BmzzlcIda9-116" value="Terminal" style="rounded=0;whiteSpace=wrap;html=1;" parent="1" vertex="1">
          <mxGeometry x="825" y="730" width="130" height="20" as="geometry" />
        </mxCell>
        <mxCell id="_A56zgASHzxLLY9Wt3BT-2" value="" style="rounded=0;whiteSpace=wrap;html=1;fillColor=#7EA6E0;strokeColor=#6c8ebf;" vertex="1" parent="1">
          <mxGeometry x="150" y="160" width="820" height="90" as="geometry" />
        </mxCell>
        <mxCell id="kbPqY_EedMQAxYhCuao2-3" value="" style="shape=image;verticalLabelPosition=bottom;labelBackgroundColor=default;verticalAlign=top;aspect=fixed;imageAspect=0;editableCssRules=.*;image=data:image/svg+xml,PHN2ZyB4bWxucz0iaHR0cDovL3d3dy53My5vcmcvMjAwMC9zdmciIHdpZHRoPSI1ODAiIGhlaWdodD0iNTgwIiB2aWV3Qm94PSIwIDAgNTgwIDU4MCI+PHBhdGggc3Ryb2tlLXdpZHRoPSIzLjQwOCIgc3Ryb2tlPSIjZWVlIiBmaWxsPSIjMTExIiBkPSJtNjYuMjc1IDEuNzY4Yy00MS4zMzUgMC02NC41NzEgMjEuMzcxLTY0LjU3MSA2NS4wMzZ2NDUwLjEyM2MwIDQwLjg0NCAyMC44OTUgNjIuMjI5IDYyLjE5MiA2Mi4yMjloNDUyLjAyNGM0MS4zMDcgMCA2Mi4yMjktMjAuMzE1IDYyLjIyOS02Mi4yMjl2LTQ1MC4xMjNjMC00Mi42MDEtMjAuOTIyLTY1LjAzNi02My41MjEtNjUuMDM2LS4wMDQgMC00NDguNDk1LS4xNDMtNDQ4LjM1MyAweiIvPjxnIGZpbGw9IiNmZmYiPjxwYXRoIHRyYW5zZm9ybT0ibWF0cml4KC4zNzIwMTIyNyAuNDg2OTI4NzIgLS40ODY5Mjg3MiAuMzcyMDEyMjcgNDU0LjAyNDU2IC01MS45ODE5KSIgZD0ibTE5Ni45MSAyNS4zODE1Yy4wNi0zNCA1MS4zMDktMzQgNTEuMjc1Ljk1OHYxNDIuNjkxNWwxOTkuNzY0IDEyMC4wNjR2NTIuNzE3bC0xOTguODA1LTY1LjQzdjEwNi42NDdsNDYuMDA4IDM1Ljk0NHY0MS42OTRsLTcwLjkyNy0yMi4wNDYtNzAuOTI3IDIyLjA0NnYtNDEuNjk0bDQ1LjUyOS0zNS45NDR2LTEwNi42NDdsLTE5OC44MjcgNjUuNDN2LTUyLjcxN2wxOTYuOTEtMTIwLjA2NHYtMTQzLjY0OTV6Ii8+PHBhdGggc3Ryb2tlLXdpZHRoPSIyMC43Njc2NDMiIHN0cm9rZS1saW5lam9pbj0icm91bmQiIHN0cm9rZS1saW5lY2FwPSJyb3VuZCIgc3Ryb2tlPSIjZmZmIiBkPSJtMzkuMDg5NjkxIDM3Ny43MzcwNHYxMTguODA0ODhoMzcyLjIzMDY1OXYtNjUuODQ5NzQtMS4wNzQ1NC0xLjA3NDU1aDExMS4wNDc5OHY2Ny45OTg4M2gxNy44OTc5NnYtMTE4LjgwNDg4em00Ljc1MzUzMyAzLjY5Mzc3aDExMS4wMTAzNzZ2NDEuMDAwNzhoLTExMS4wMTAzNzZ2LTM5LjYyNDAyLS43MDUxN3ptMTI1LjA5NTAzNiAwaDExMS4wMTAzOHY0MS4wMDA3OGgtMTExLjAxMDM4di0zOS42MjQwMi0uNzA1MTd6bTEyMi4yMDA0NSAwaDExMS4wMTAzN3Y0MS4wMDA3OGgtMTExLjAxMDM3di0zOS42MjQwMi0uNzA1MTd6bTEyMC4yMDA0NCAwaDExMS4wMTAzOHY0MS4wMDA3OGgtMTExLjAxMDM4di0zOS42MjQwMi0uNzA1MTd6bS0zNjcuNTE0NzI1IDQ3LjExMjI4aDExMS4wNDc5NzV2NjMuODM0OTVoLTExMS4wNDc5NzV2LTYxLjY4NTg2LTEuMDc0NTR6bTEyNS4yNDQxMzUgMGgxMTEuMDQ3OTh2NjMuODM0OTVoLTExMS4wNDc5OHYtNjEuNjg1ODYtMS4wNzQ1NHptMTIyLjA1MTM1IDBoMTExLjA0Nzk3djYzLjgzNDk1aC0xMTEuMDQ3OTd2LTYxLjY4NTg2LTEuMDc0NTR6Ii8+PHBhdGggc3Ryb2tlLXdpZHRoPSIyMS40OTA5OSIgc3Ryb2tlLWxpbmVqb2luPSJyb3VuZCIgc3Ryb2tlLWxpbmVjYXA9InJvdW5kIiBzdHJva2U9IiNmZmYiIGQ9Im04NS43MjgzNDIgMzc2LjUwOTg2YzE2Ni44MTI2MDggMC00NC42MTYxODggNiAxMjIuMTk2NDI4IDYgMC00Mi40NjcwOCAwLTUyLjY5NzcgMC05NS4xNjQ3OS0xNjYuODEyNjE2IDAgNDQuNjE2MTggMC0xMjIuMTk2NDI4IDB6Ii8+PHBhdGggc3Ryb2tlLXdpZHRoPSIyMS40OTA5OSIgc3Ryb2tlLWxpbmVqb2luPSJyb3VuZCIgc3Ryb2tlLWxpbmVjYXA9InJvdW5kIiBzdHJva2U9IiNmZmYiIGQ9Im04Ni4yMjA4MTggMjMyLjg2NjMxYzQuMDUzODc4IDIxLjE1MzEzIDEyLjE4NzQxMiA0NS4yNDYyOCAzMi45NzUyNDIgNTUuMjcyMTQgMTQuNjMwOCA3LjA4MTA0IDMxLjMzMTYxIDIuMDM2MDIgNDYuODc3MjIgMy44OTUyNCA5LjE3OTU2LTEuMjc3NzIgMTYuMzAxMTEtOC42MTc5NiAyMi4zNjQwNi0xNS4wNzcyNyA5Ljk2ODQ2LTEyLjExNDM0IDEzLjk5OTY2LTI3Ljc1NjQ2IDE4LjYzNjcyLTQyLjE3NjA3LTIuNTY1MDQtMy4zMDMyNS04LjYyNTk5LjE4NDU4LTEyLjI1NjQyLTEuMDEwODgtMzYuMTg3NzMtLjI4OTc5LTcyLjQ2NTA1LS42Njk4MS0xMDguNTk2ODIyLS45MDMxNnptMTIwLjU4NDYwMiAxLjMwOTZjLjExMTM3LS4wMzQ5LS4wNDYxLS4wNjIgMCAweiIvPjxwYXRoIHN0cm9rZS13aWR0aD0iOC44Mjk5NjIiIHN0cm9rZS1saW5lam9pbj0icm91bmQiIHN0cm9rZS1saW5lY2FwPSJyb3VuZCIgc3Ryb2tlPSIjZmZmIiBkPSJtNzkuMzk3ODI3IDE3MS4zNzA4N2gxMzQuODU3NDUzYzAtNi40OTU5MiAwLTguMDYwODQgMC0xNC41NTY3Ni0xODQuMDk2NDE3IDAgNDkuMjM4OTcgMC0xMzQuODU3NDUzIDB6Ii8+PHBhdGggc3Ryb2tlLXdpZHRoPSI4LjgyOTk2MiIgc3Ryb2tlLWxpbmVqb2luPSJyb3VuZCIgc3Ryb2tlLWxpbmVjYXA9InJvdW5kIiBzdHJva2U9IiNmZmYiIGQ9Im03OS4zOTc4MjcgMjMyLjgwMDE1aDEzNC44NTc0NTNjMC02LjQ5NTkyIDAtOC4wNjA4NCAwLTE0LjU1Njc2LTE4NC4wOTY0MTcgMCA0OS4yMzg5NyAwLTEzNC44NTc0NTMgMHoiLz48cGF0aCBzdHJva2Utd2lkdGg9IjE2LjU5OTI4NSIgc3Ryb2tlLWxpbmVqb2luPSJyb3VuZCIgc3Ryb2tlLWxpbmVjYXA9InJvdW5kIiBzdHJva2U9IiNmZmYiIG9wYWNpdHk9Ii41IiBkPSJtODMuMjgyNDg0IDIxNy4yODY2MWgxMjcuMDg4MTM2YzAtMjQuMzU5NyAwLTMwLjIyODE1IDAtNTQuNTg3ODQtMTczLjQ5MDM3NSAwIDQ2LjQwMjI0IDAtMTI3LjA4ODEzNiAweiIvPjxwYXRoIHN0cm9rZS13aWR0aD0iMTQuMDc3MjY4IiBzdHJva2UtbGluZWpvaW49InJvdW5kIiBzdHJva2UtbGluZWNhcD0icm91bmQiIHN0cm9rZT0iI2ZmZiIgZD0ibTM0Mi4wMDg5OSAzNzUuNTUzMjdoMTUyLjkyNzQxYzAtMTQuNTU5NjEgMC0xOC4wNjcxMSAwLTMyLjYyNjcyLTIwOC43NjQwNiAwIDU1LjgzNjY1IDAtMTUyLjkyNzQxIDB6Ii8+PHBhdGggc3Ryb2tlLXdpZHRoPSIyMC43Njc2NDMiIHN0cm9rZS1saW5lam9pbj0icm91bmQiIHN0cm9rZS1saW5lY2FwPSJyb3VuZCIgc3Ryb2tlPSIjZmZmIiBvcGFjaXR5PSIuMjUiIGQ9Im0zOS4wOTczOTYgNDk2LjU0Nzc3aDUwMS4xNjExOTRjMC0zOS41OTkyNCAwLTc5LjE5ODQ4IDAtMTE4Ljc5NzcyLTE2Ny4wNTM3MyAwLTMzNC4xMDc0NiAwLTUwMS4xNjExOTQgMHoiLz48cGF0aCBzdHJva2Utd2lkdGg9IjcuMzc5MzQ5IiBzdHJva2UtbGluZWpvaW49InJvdW5kIiBzdHJva2UtbGluZWNhcD0icm91bmQiIHN0cm9rZT0iI2ZmZiIgZD0ibTEzOC42NTM3MiA2OC4yODk3NjR2ODUuNzI4MjI2aDE1Ljk5MzE5YzAtMTE3LjAyOTE5NSAwIDMxLjMwMDk2IDAtODUuNzI4MjI2LTcuMTM2OTMgMC04Ljg1NjI3IDAtMTUuOTkzMTkgMHoiLz48L2c+PC9zdmc+;" parent="1" vertex="1">
          <mxGeometry x="320" y="190" width="50" height="50" as="geometry" />
        </mxCell>
        <mxCell id="kbPqY_EedMQAxYhCuao2-4" value="" style="rounded=1;whiteSpace=wrap;html=1;fillColor=#7EA6E0;" parent="1" vertex="1">
          <mxGeometry x="230" y="285" width="190" height="45" as="geometry" />
        </mxCell>
        <mxCell id="kbPqY_EedMQAxYhCuao2-5" value="" style="rounded=1;whiteSpace=wrap;html=1;fillColor=#7EA6E0;" parent="1" vertex="1">
          <mxGeometry x="442.5" y="285" width="190" height="45" as="geometry" />
        </mxCell>
        <mxCell id="kbPqY_EedMQAxYhCuao2-6" value="" style="rounded=1;whiteSpace=wrap;html=1;fillColor=#000099;" parent="1" vertex="1">
          <mxGeometry x="675" y="285" width="190" height="45" as="geometry" />
        </mxCell>
        <mxCell id="kbPqY_EedMQAxYhCuao2-7" value="&lt;font style=&quot;font-size: 21px;&quot; face=&quot;Times New Roman&quot;&gt;&lt;span style=&quot;color: rgb(255, 255, 255);&quot;&gt;Flight Search&lt;/span&gt;&lt;/font&gt;" style="text;strokeColor=none;align=center;fillColor=none;html=1;verticalAlign=middle;whiteSpace=wrap;rounded=0;fontColor=#0000FF;" parent="1" vertex="1">
          <mxGeometry x="240" y="280" width="165" height="50" as="geometry" />
        </mxCell>
        <mxCell id="kbPqY_EedMQAxYhCuao2-8" value="&lt;font style=&quot;font-size: 20px; color: rgb(255, 255, 255);&quot; face=&quot;Times New Roman&quot;&gt;Gate Map&lt;br&gt;&lt;/font&gt;" style="text;strokeColor=none;align=center;fillColor=none;html=1;verticalAlign=middle;whiteSpace=wrap;rounded=0;fontColor=#0000FF;" parent="1" vertex="1">
          <mxGeometry x="455" y="280" width="165" height="50" as="geometry" />
        </mxCell>
        <mxCell id="kbPqY_EedMQAxYhCuao2-9" value="&lt;font style=&quot;font-size: 19px; color: rgb(255, 255, 255);&quot; face=&quot;Times New Roman&quot;&gt;Status Board&lt;/font&gt;" style="text;strokeColor=none;align=center;fillColor=none;html=1;verticalAlign=middle;whiteSpace=wrap;rounded=0;fontColor=#0000FF;" parent="1" vertex="1">
          <mxGeometry x="700" y="285" width="140" height="50" as="geometry" />
        </mxCell>
        <mxCell id="_A56zgASHzxLLY9Wt3BT-1" value="&lt;font style=&quot;font-size: 20px;&quot;&gt;&lt;b&gt;Status Board&lt;/b&gt;&lt;/font&gt;" style="text;strokeColor=none;align=center;fillColor=none;html=1;verticalAlign=middle;whiteSpace=wrap;rounded=0;" vertex="1" parent="1">
          <mxGeometry x="150" y="200" width="155" height="30" as="geometry" />
        </mxCell>
      </root>
    </mxGraphModel>
  </diagram>
</mxfile>
